# xmcd
#
# Track frame offsets: 
#        150
#        20858
#        47117
#        82439
#        111860
#        134462
#        160932
#        202060
#        233514
#        267508
#        306188
#        333446
#
# Disc length: 4769 seconds
#
# Revision: 0
# Processed by: cddbd v1.5.2PL0 Copyright (c) Steve Scherf et al.
# Submitted via: ExactAudioCopy v0.95b4
#
DISCID=b4129f0c
DTITLE=Various Artist - NuJazzCool
DYEAR=2006
DGENRE=Easy Listening
TTITLE0=David Borsu - Nocturne
TTITLE1=Gerardo Frisina - Cubana
TTITLE2=Belladonna - Ebatule ( Ennio Styles Samba Funk Remix)
TTITLE3=LTJ-X-Perience - When The Rain Begins to Fall
TTITLE4=Sarah Jane Morris - Nothing Comes From Nothing (At Jazz Remix)
TTITLE5=Domu - Won´t Let It Go
TTITLE6=Big Bang - Smile In Your Eyes (Marc De Clive Lowe Remix)
TTITLE7=Ennio Styles - Zouk
TTITLE8=Deeperwiderhigher - Beauty (Eddy and Yannah Remix)
TTITLE9=Dwayne Morgan - Everything (Yam Who? Re-Edit)
TTITLE10=Consequences - The Cat (Natures Plan Re-Work)
TTITLE11=OHM Guru/ Heart and Soul (Jimpster remix)
EXTD=
EXTT0=
EXTT1=
EXTT2=
EXTT3=
EXTT4=
EXTT5=
EXTT6=
EXTT7=
EXTT8=
EXTT9=
EXTT10=
EXTT11=
PLAYORDER=
